<mxfile host="app.diagrams.net" agent="Mozilla/5.0 (X11; Linux x86_64) AppleWebKit/537.36 (KHTML, like Gecko) Chrome/128.0.0.0 Safari/537.36" version="24.7.16">
  <diagram name="Page-1" id="Bp2gX--FtC4sSMWxsLrs">
    <mxGraphModel dx="1728" dy="954" grid="1" gridSize="10" guides="1" tooltips="1" connect="1" arrows="1" fold="1" page="0" pageScale="1" pageWidth="850" pageHeight="1100" background="none" math="0" shadow="0">
      <root>
        <mxCell id="0" />
        <mxCell id="1" parent="0" />
        <mxCell id="zHhczcy2-Jv_nqmJUiNH-1" value="" style="verticalLabelPosition=bottom;verticalAlign=top;html=1;shape=mxgraph.basic.polygon;polyCoords=[[0.25,0],[0.75,0],[1,0.25],[1,0.75],[0.75,1],[0.25,1],[0,0.75],[0,0.25]];polyline=0;strokeWidth=4;rounded=1;fillColor=#4251B0;" vertex="1" parent="1">
          <mxGeometry x="280" y="217.5" width="465" height="465" as="geometry" />
        </mxCell>
        <mxCell id="zHhczcy2-Jv_nqmJUiNH-2" value="&lt;b&gt;&lt;font style=&quot;font-size: 22px;&quot;&gt;Mobile App&lt;/font&gt;&lt;/b&gt;" style="text;html=1;align=center;verticalAlign=middle;resizable=0;points=[];autosize=1;strokeColor=none;fillColor=none;rounded=1;fontColor=#ffffff;" vertex="1" parent="1">
          <mxGeometry x="442.5" y="225" width="140" height="40" as="geometry" />
        </mxCell>
        <mxCell id="zHhczcy2-Jv_nqmJUiNH-25" style="edgeStyle=none;rounded=1;orthogonalLoop=1;jettySize=auto;html=1;exitX=1;exitY=0.5;exitDx=0;exitDy=0;entryX=0;entryY=0.5;entryDx=0;entryDy=0;" edge="1" parent="1" source="zHhczcy2-Jv_nqmJUiNH-4" target="zHhczcy2-Jv_nqmJUiNH-5">
          <mxGeometry relative="1" as="geometry" />
        </mxCell>
        <mxCell id="zHhczcy2-Jv_nqmJUiNH-4" value="Services" style="rounded=1;whiteSpace=wrap;html=1;fillColor=#FFB400;" vertex="1" parent="1">
          <mxGeometry x="530" y="420" width="80" height="60" as="geometry" />
        </mxCell>
        <mxCell id="zHhczcy2-Jv_nqmJUiNH-26" style="edgeStyle=none;rounded=1;orthogonalLoop=1;jettySize=auto;html=1;exitX=1;exitY=0.5;exitDx=0;exitDy=0;entryX=0;entryY=0.5;entryDx=0;entryDy=0;" edge="1" parent="1" source="zHhczcy2-Jv_nqmJUiNH-5" target="zHhczcy2-Jv_nqmJUiNH-12">
          <mxGeometry relative="1" as="geometry" />
        </mxCell>
        <mxCell id="zHhczcy2-Jv_nqmJUiNH-5" value="Repositories" style="rounded=1;whiteSpace=wrap;html=1;fillColor=#1E83F7;" vertex="1" parent="1">
          <mxGeometry x="650" y="420" width="80" height="60" as="geometry" />
        </mxCell>
        <mxCell id="zHhczcy2-Jv_nqmJUiNH-24" style="edgeStyle=none;rounded=1;orthogonalLoop=1;jettySize=auto;html=1;exitX=1;exitY=0.5;exitDx=0;exitDy=0;entryX=0;entryY=0.5;entryDx=0;entryDy=0;" edge="1" parent="1" source="zHhczcy2-Jv_nqmJUiNH-6" target="zHhczcy2-Jv_nqmJUiNH-4">
          <mxGeometry relative="1" as="geometry" />
        </mxCell>
        <mxCell id="zHhczcy2-Jv_nqmJUiNH-6" value="Providers" style="rounded=1;whiteSpace=wrap;html=1;fillColor=#ED79B5;" vertex="1" parent="1">
          <mxGeometry x="410" y="420" width="80" height="60" as="geometry" />
        </mxCell>
        <mxCell id="zHhczcy2-Jv_nqmJUiNH-29" style="edgeStyle=none;rounded=1;orthogonalLoop=1;jettySize=auto;html=1;exitX=0.5;exitY=0;exitDx=0;exitDy=0;entryX=0.5;entryY=1;entryDx=0;entryDy=0;" edge="1" parent="1" source="zHhczcy2-Jv_nqmJUiNH-7" target="zHhczcy2-Jv_nqmJUiNH-8">
          <mxGeometry relative="1" as="geometry" />
        </mxCell>
        <mxCell id="zHhczcy2-Jv_nqmJUiNH-30" style="edgeStyle=none;rounded=1;orthogonalLoop=1;jettySize=auto;html=1;exitX=1;exitY=0.5;exitDx=0;exitDy=0;entryX=0;entryY=0.75;entryDx=0;entryDy=0;" edge="1" parent="1" source="zHhczcy2-Jv_nqmJUiNH-7" target="zHhczcy2-Jv_nqmJUiNH-6">
          <mxGeometry relative="1" as="geometry" />
        </mxCell>
        <mxCell id="zHhczcy2-Jv_nqmJUiNH-7" value="Pages" style="rounded=1;whiteSpace=wrap;html=1;fillColor=#FA2921;" vertex="1" parent="1">
          <mxGeometry x="290" y="480" width="80" height="60" as="geometry" />
        </mxCell>
        <mxCell id="zHhczcy2-Jv_nqmJUiNH-31" style="edgeStyle=none;rounded=1;orthogonalLoop=1;jettySize=auto;html=1;exitX=1;exitY=0.5;exitDx=0;exitDy=0;entryX=0;entryY=0.25;entryDx=0;entryDy=0;" edge="1" parent="1" source="zHhczcy2-Jv_nqmJUiNH-8" target="zHhczcy2-Jv_nqmJUiNH-6">
          <mxGeometry relative="1" as="geometry" />
        </mxCell>
        <mxCell id="zHhczcy2-Jv_nqmJUiNH-8" value="Widgets" style="rounded=1;whiteSpace=wrap;html=1;fillColor=#FA2921;" vertex="1" parent="1">
          <mxGeometry x="290" y="360" width="80" height="60" as="geometry" />
        </mxCell>
        <mxCell id="zHhczcy2-Jv_nqmJUiNH-11" value="User" style="shape=umlActor;verticalLabelPosition=bottom;verticalAlign=top;html=1;outlineConnect=0;rounded=1;fillColor=#4251B0;" vertex="1" parent="1">
          <mxGeometry x="180" y="368.5" width="81.5" height="163" as="geometry" />
        </mxCell>
        <mxCell id="zHhczcy2-Jv_nqmJUiNH-12" value="platform&lt;div&gt;system&lt;/div&gt;" style="rhombus;whiteSpace=wrap;html=1;rounded=1;fillColor=#ED79B5;" vertex="1" parent="1">
          <mxGeometry x="800" y="410" width="80" height="80" as="geometry" />
        </mxCell>
        <mxCell id="zHhczcy2-Jv_nqmJUiNH-13" value="on-device&lt;div&gt;database&lt;/div&gt;" style="shape=cylinder3;whiteSpace=wrap;html=1;boundedLbl=1;backgroundOutline=1;size=15;rounded=1;fillColor=#FA2921;" vertex="1" parent="1">
          <mxGeometry x="810" y="310" width="60" height="80" as="geometry" />
        </mxCell>
        <mxCell id="zHhczcy2-Jv_nqmJUiNH-14" value="server" style="ellipse;shape=cloud;whiteSpace=wrap;html=1;rounded=1;fillColor=#FFB400;" vertex="1" parent="1">
          <mxGeometry x="780" y="500" width="120" height="80" as="geometry" />
        </mxCell>
        <mxCell id="zHhczcy2-Jv_nqmJUiNH-16" style="edgeStyle=none;rounded=1;orthogonalLoop=1;jettySize=auto;html=1;exitX=1;exitY=0.75;exitDx=0;exitDy=0;entryX=0.07;entryY=0.4;entryDx=0;entryDy=0;entryPerimeter=0;" edge="1" parent="1" source="zHhczcy2-Jv_nqmJUiNH-5" target="zHhczcy2-Jv_nqmJUiNH-14">
          <mxGeometry relative="1" as="geometry" />
        </mxCell>
        <mxCell id="zHhczcy2-Jv_nqmJUiNH-39" value="OpenAPI" style="edgeLabel;html=1;align=center;verticalAlign=middle;resizable=0;points=[];rounded=1;labelBackgroundColor=#1E83F7;" vertex="1" connectable="0" parent="zHhczcy2-Jv_nqmJUiNH-16">
          <mxGeometry x="0.0697" y="1" relative="1" as="geometry">
            <mxPoint x="8" y="10" as="offset" />
          </mxGeometry>
        </mxCell>
        <mxCell id="zHhczcy2-Jv_nqmJUiNH-23" style="edgeStyle=none;rounded=1;orthogonalLoop=1;jettySize=auto;html=1;exitX=0.75;exitY=1;exitDx=0;exitDy=0;" edge="1" parent="1" source="zHhczcy2-Jv_nqmJUiNH-6" target="zHhczcy2-Jv_nqmJUiNH-6">
          <mxGeometry relative="1" as="geometry" />
        </mxCell>
        <mxCell id="zHhczcy2-Jv_nqmJUiNH-27" style="edgeStyle=none;rounded=1;orthogonalLoop=1;jettySize=auto;html=1;exitX=1;exitY=0.25;exitDx=0;exitDy=0;entryX=0;entryY=1;entryDx=0;entryDy=-15;entryPerimeter=0;" edge="1" parent="1" source="zHhczcy2-Jv_nqmJUiNH-5" target="zHhczcy2-Jv_nqmJUiNH-13">
          <mxGeometry relative="1" as="geometry" />
        </mxCell>
        <mxCell id="zHhczcy2-Jv_nqmJUiNH-34" style="edgeStyle=none;rounded=1;orthogonalLoop=1;jettySize=auto;html=1;exitX=1;exitY=0.5;exitDx=0;exitDy=0;dashed=1;" edge="1" parent="1" source="zHhczcy2-Jv_nqmJUiNH-3">
          <mxGeometry relative="1" as="geometry">
            <mxPoint x="810" y="360" as="targetPoint" />
          </mxGeometry>
        </mxCell>
        <mxCell id="zHhczcy2-Jv_nqmJUiNH-36" value="" style="endArrow=none;dashed=1;html=1;rounded=1;" edge="1" parent="1" source="zHhczcy2-Jv_nqmJUiNH-9">
          <mxGeometry width="50" height="50" relative="1" as="geometry">
            <mxPoint x="512.08" y="665" as="sourcePoint" />
            <mxPoint x="512.08" y="265" as="targetPoint" />
          </mxGeometry>
        </mxCell>
        <mxCell id="zHhczcy2-Jv_nqmJUiNH-37" value="UI part" style="text;html=1;align=center;verticalAlign=middle;resizable=0;points=[];autosize=1;strokeColor=none;fillColor=none;fontStyle=1;fontSize=14;fontColor=#FFFFFF;" vertex="1" parent="1">
          <mxGeometry x="387.5" y="640" width="70" height="30" as="geometry" />
        </mxCell>
        <mxCell id="zHhczcy2-Jv_nqmJUiNH-38" value="non-UI part" style="text;html=1;align=center;verticalAlign=middle;resizable=0;points=[];autosize=1;strokeColor=none;fillColor=none;fontStyle=1;fontSize=14;fontColor=#FFFFFF;" vertex="1" parent="1">
          <mxGeometry x="550" y="640" width="90" height="30" as="geometry" />
        </mxCell>
        <mxCell id="zHhczcy2-Jv_nqmJUiNH-41" value="" style="endArrow=none;dashed=1;html=1;rounded=1;" edge="1" parent="1" target="zHhczcy2-Jv_nqmJUiNH-9">
          <mxGeometry width="50" height="50" relative="1" as="geometry">
            <mxPoint x="512.08" y="665" as="sourcePoint" />
            <mxPoint x="512.08" y="265" as="targetPoint" />
          </mxGeometry>
        </mxCell>
        <mxCell id="zHhczcy2-Jv_nqmJUiNH-9" value="Models" style="rounded=1;whiteSpace=wrap;html=1;fillColor=#18C249;" vertex="1" parent="1">
          <mxGeometry x="470" y="510" width="80" height="60" as="geometry" />
        </mxCell>
        <mxCell id="zHhczcy2-Jv_nqmJUiNH-3" value="Entities" style="rounded=1;whiteSpace=wrap;html=1;gradientColor=none;fillColor=#18C249;" vertex="1" parent="1">
          <mxGeometry x="472.5" y="330" width="80" height="60" as="geometry" />
        </mxCell>
      </root>
    </mxGraphModel>
  </diagram>
</mxfile>
